<?xml version="1.0" encoding="utf-8"?>
<!-- Generator: Adobe Illustrator 24.1.0, SVG Export Plug-In . SVG Version: 6.00 Build 0)  -->
<svg version="1.1" xmlns="http://www.w3.org/2000/svg" xmlns:xlink="http://www.w3.org/1999/xlink" x="0px" y="0px"
	 viewBox="0 0 369.7 395.2" height="700" width="650" style="enable-background:new 0 0 369.7 395.2;" xml:space="preserve">
<style type="text/css">
	.st0{fill:#4D4D4D;}
	.st1{fill:none;stroke:#FFA524;stroke-width:2;stroke-miterlimit:10;}
	.st2{fill:#F8F7F6;}
	.st3{fill:#F9C441;}
	.st4{fill:#FBEA71;}
	.st5{fill:#FFA524;}
	.st6{fill:#FFDC00;}
	.st7{fill:#EA9628;}
	.st8{fill:#F4E37A;}
</style>
<g id="Layer_4">
	<rect id="backdrop" x="84.4" y="171.8" class="st0" width="199.1" height="215.8"/>
</g>
<g id="Layer_1">
	<rect id="outline" x="90.6" y="178.5" class="st1" width="186.8" height="202.5"/>
	<polygon id="egg" class="st2" points="246.8,284.1 246.8,279.8 246.8,275.5 246.8,271.2 246.8,266.9 246.8,262.6 246.8,258.3 
		246.8,254 242.5,254 242.5,258.3 238.2,258.3 238.2,262.6 238.2,266.9 238.2,271.2 233.9,271.2 229.6,271.2 225.3,271.2 221,271.2 
		221,275.5 221,279.8 216.7,279.8 216.7,284.1 216.7,288.4 216.7,292.7 216.7,297 216.7,301.3 212.4,301.3 212.4,297 212.4,292.7 
		208.1,292.7 208.1,288.4 203.8,288.4 199.5,288.4 199.5,292.7 195.2,292.7 190.9,292.7 190.9,288.4 186.6,288.4 182.3,288.4 
		182.3,292.7 182.3,297 182.3,301.3 182.3,305.6 178,305.6 178,309.9 173.7,309.9 173.7,305.6 173.7,301.3 169.4,301.3 169.4,297 
		165.1,297 160.8,297 156.5,297 152.2,297 147.9,297 147.9,292.7 147.9,288.4 147.9,284.1 147.9,279.8 143.6,279.8 139.3,279.8 
		139.3,275.5 139.3,271.2 139.3,266.9 135,266.9 130.7,266.9 126.4,266.9 122.1,266.9 122.1,262.6 117.8,262.6 117.8,266.9 
		117.8,271.2 117.8,275.5 117.8,279.8 117.8,284.1 113.5,284.1 113.5,288.4 113.5,292.7 113.5,297 113.5,301.3 113.5,305.6 
		113.5,309.9 117.8,309.9 117.8,314.2 117.8,318.5 117.8,322.8 117.8,327.1 117.8,331.4 122.1,331.4 126.4,331.4 126.4,335.7 
		126.4,340 126.4,344.3 130.7,344.3 135,344.3 135,348.6 135,352.9 139.3,352.9 143.6,352.9 143.6,357.2 147.9,357.2 152.2,357.2 
		152.2,361.5 156.5,361.5 160.8,361.5 165.1,361.5 169.4,361.5 173.7,361.5 178,361.5 182.3,361.5 186.6,361.5 190.9,361.5 
		195.2,361.5 199.5,361.5 203.8,361.5 208.1,361.5 212.4,361.5 212.4,357.2 216.7,357.2 221,357.2 221,352.9 225.3,352.9 
		229.6,352.9 229.6,348.6 229.6,344.3 233.9,344.3 238.2,344.3 238.2,340 238.2,335.7 238.2,331.4 242.5,331.4 246.8,331.4 
		246.8,327.1 246.8,322.8 246.8,318.5 246.8,314.2 246.8,309.9 251.1,309.9 251.1,305.6 251.1,301.3 251.1,297 251.1,292.7 
		251.1,288.4 251.1,284.1 	"/>
	<polygon id="body" class="st3" points="135,262.5 139.3,262.5 139.3,266.8 143.6,266.8 143.6,271.1 143.6,275.4 147.9,275.4 
		147.9,279.7 152.2,279.7 152.2,284 152.2,288.3 152.2,292.6 156.5,292.6 160.8,292.6 165.1,292.6 169.4,292.6 169.4,296.9 
		173.7,296.9 173.7,301.2 178,301.2 178,296.9 178,292.6 178,288.3 182.3,288.3 182.3,284 186.6,284 190.9,284 190.9,288.3 
		195.2,288.3 199.5,288.3 199.5,284 203.8,284 208.1,284 208.1,288.3 212.4,288.3 212.4,284 212.4,279.7 212.4,275.4 216.7,275.4 
		216.7,271.1 221,271.1 221,266.8 225.3,266.8 229.6,266.8 233.9,266.8 233.9,262.5 233.9,258.2 229.6,258.2 229.6,253.9 
		229.6,249.6 225.3,249.6 221,249.6 216.7,249.6 212.4,249.6 208.1,249.6 208.1,253.9 208.1,258.2 208.1,262.5 203.8,262.5 
		199.5,262.5 195.2,262.5 190.9,262.5 186.6,262.5 182.3,262.5 178,262.5 173.7,262.5 169.4,262.5 165.1,262.5 160.8,262.5 
		160.8,258.2 156.5,258.2 156.5,253.9 152.2,253.9 147.9,253.9 143.6,253.9 143.6,249.6 139.3,249.6 135,249.6 135,253.9 135,258.2 
		130.7,258.2 126.4,258.2 126.4,262.5 130.7,262.5 	"/>
	<polygon id="head" class="st4" points="208.1,215.3 208.1,206.7 156.5,206.7 156.5,215.3 147.9,215.3 147.9,219.6 143.6,219.6 
		143.6,254 156.5,254 156.5,258.3 160.8,258.3 160.8,262.6 208.1,262.6 208.1,253.9 216.7,253.9 216.7,249.7 221,249.7 221,219.4 
		216.1,219.4 216.1,215.3 	"/>
	<polygon id="eye1" points="208,228.3 203.7,228.3 199.4,228.3 199.4,232.6 199.4,236.9 203.7,236.9 208,236.9 208,232.6 	"/>
	<polygon id="eye2" points="165,236.9 165,232.6 165,228.3 160.7,228.3 156.4,228.3 156.4,232.6 156.4,236.9 160.7,236.9 	"/>
	<polygon id="beak" class="st5" points="191,236.8 186.7,236.8 182.4,236.8 178,236.8 173.7,236.8 173.7,241.1 169.5,241.1 
		169.5,245.4 169.5,249.7 173.7,249.7 178,249.7 178,254 182.4,254 186.7,254 186.7,249.7 191,249.7 195.3,249.7 195.3,245.4 
		195.3,241.1 191,241.1 	"/>
	<polygon id="cheek" class="st6" points="212.4,241.1 208.1,241.1 203.8,241.1 199.5,241.1 199.5,245.4 203.8,245.4 203.8,249.7 
		208.1,249.7 212.4,249.7 212.4,245.4 	"/>
	<polygon id="cheek2" class="st6" points="160.8,245.4 165.1,245.4 165.1,241.1 160.8,241.1 156.5,241.1 152.2,241.1 152.2,245.4 
		152.2,249.7 156.5,249.7 160.8,249.7 	"/>
	<path id="eggline" class="st7" d="M126.4,262.5v4.3h12.9v12.9h8.6v17.2h21.5v4.3h4.3v8.6h4.3v-4.3h4.3v-17.2h8.6v4.3h8.6v-4.3h8.6
		v4.3h4.3v8.6h4.3v-21.5h4.3v-8.6h17.2v-12.9h-4.3v8.6H221l0,4.3h-4.3v4.3h-4.3v12.9h-4.3V284h-8.6l0,4.3h-8.6V284h-8.6l0,4.3H178
		v12.9l-4.3,0v-4.3l-4.3,0v-4.3h-17.2v-12.9l-4.3,0v-4.3h-4.3v-8.6l-4.3,0v-4.3C139.3,262.5,126.4,262.6,126.4,262.5z"/>
	<polygon id="crown" class="st5" points="186.1,199.3 186.1,194.6 186.1,194.3 186.1,189.3 180.9,189.3 180.9,194.3 175.9,194.3 
		175.9,199.3 175.9,199.6 175.9,204.6 180.9,204.6 181.1,204.6 185.9,204.6 186.1,204.6 191.1,204.6 191.1,199.3 	"/>
</g>
<g id="Layer_3">
	<g id="chain2">
		<g>
			<g>
				<g>
					<path d="M100.1,121.1v-13.8c0-0.7,0.7-1.2,1.5-1.2s1.5,0.5,1.5,1.2v13.8c0,0.7-0.7,1.2-1.5,1.2S100.1,121.7,100.1,121.1z"/>
					<path d="M97.8,122.4c0-1.7,1.7-3.1,3.7-3.1c2.1,0,3.7,1.4,3.7,3.1v3.4h1.6v-3.4c0-2.5-2.4-4.5-5.3-4.5c-2.9,0-5.3,2-5.3,4.5
						v3.4h1.6V122.4z"/>
					<path d="M106.8,105.9v-3.5h-1.6v3.5c0,1.7-1.7,3.1-3.7,3.1c-2.1,0-3.7-1.4-3.7-3.1v-3.5h-1.6v3.5c0,2.5,2.4,4.5,5.3,4.5
						C104.4,110.4,106.8,108.4,106.8,105.9z"/>
					<path d="M103.6,105.9c0,1-0.9,1.8-2.1,1.8s-2.1-0.8-2.1-1.8v-3.5h-1.6v3.5c0,1.7,1.7,3.1,3.7,3.1c2.1,0,3.7-1.4,3.7-3.1v-3.5
						h-1.6V105.9z"/>
					<path d="M101.5,119.2c-2.1,0-3.7,1.4-3.7,3.1v3.4h1.6v-3.4c0-1,0.9-1.8,2.1-1.8s2.1,0.8,2.1,1.8v3.4h1.6v-3.4
						C105.2,120.6,103.5,119.2,101.5,119.2z"/>
				</g>
				<g>
					<path d="M100.1,144.4v-13.8c0-0.7,0.7-1.2,1.5-1.2s1.5,0.5,1.5,1.2v13.8c0,0.7-0.7,1.2-1.5,1.2S100.1,145.1,100.1,144.4z"/>
					<path d="M97.8,145.7c0-1.7,1.7-3.1,3.7-3.1c2.1,0,3.7,1.4,3.7,3.1v3.4h1.6v-3.4c0-2.5-2.4-4.5-5.3-4.5c-2.9,0-5.3,2-5.3,4.5
						v3.4h1.6V145.7z"/>
					<path d="M106.8,129.3v-3.5h-1.6v3.5c0,1.7-1.7,3.1-3.7,3.1c-2.1,0-3.7-1.4-3.7-3.1v-3.5h-1.6v3.5c0,2.5,2.4,4.5,5.3,4.5
						C104.4,133.8,106.8,131.8,106.8,129.3z"/>
					<path d="M103.6,129.3c0,1-0.9,1.8-2.1,1.8s-2.1-0.8-2.1-1.8v-3.5h-1.6v3.5c0,1.7,1.7,3.1,3.7,3.1c2.1,0,3.7-1.4,3.7-3.1v-3.5
						h-1.6V129.3z"/>
					<path d="M101.5,142.6c-2.1,0-3.7,1.4-3.7,3.1v3.4h1.6v-3.4c0-1,0.9-1.8,2.1-1.8s2.1,0.8,2.1,1.8v3.4h1.6v-3.4
						C105.2,144,103.5,142.6,101.5,142.6z"/>
				</g>
				<g>
					<path d="M100.1,167.8V154c0-0.7,0.7-1.2,1.5-1.2s1.5,0.5,1.5,1.2v13.8c0,0.7-0.7,1.2-1.5,1.2S100.1,168.5,100.1,167.8z"/>
					<path d="M97.8,169.1c0-1.7,1.7-3.1,3.7-3.1c2.1,0,3.7,1.4,3.7,3.1v3.4h1.6v-3.4c0-2.5-2.4-4.5-5.3-4.5c-2.9,0-5.3,2-5.3,4.5
						v3.4h1.6V169.1z"/>
					<path d="M106.8,152.7v-3.5h-1.6v3.5c0,1.7-1.7,3.1-3.7,3.1c-2.1,0-3.7-1.4-3.7-3.1v-3.5h-1.6v3.5c0,2.5,2.4,4.5,5.3,4.5
						C104.4,157.1,106.8,155.1,106.8,152.7z"/>
					<path d="M103.6,152.7c0,1-0.9,1.8-2.1,1.8s-2.1-0.8-2.1-1.8v-3.5h-1.6v3.5c0,1.7,1.7,3.1,3.7,3.1c2.1,0,3.7-1.4,3.7-3.1v-3.5
						h-1.6V152.7z"/>
					<path d="M101.5,166c-2.1,0-3.7,1.4-3.7,3.1v3.4h1.6v-3.4c0-1,0.9-1.8,2.1-1.8s2.1,0.8,2.1,1.8v3.4h1.6v-3.4
						C105.2,167.4,103.5,166,101.5,166z"/>
				</g>
			</g>
		</g>
	</g>
	<g id="chain1">
		<g>
			<g>
				<g>
					<path d="M265.1,121.1v-13.8c0-0.7,0.7-1.2,1.5-1.2h0c0.8,0,1.5,0.5,1.5,1.2v13.8c0,0.7-0.7,1.2-1.5,1.2h0
						C265.7,122.3,265.1,121.7,265.1,121.1z"/>
					<path d="M262.8,122.4c0-1.7,1.7-3.1,3.7-3.1c2.1,0,3.7,1.4,3.7,3.1v3.4h1.6v-3.4c0-2.5-2.4-4.5-5.3-4.5c-2.9,0-5.3,2-5.3,4.5
						v3.4h1.6V122.4z"/>
					<path d="M271.8,105.9v-3.5h-1.6v3.5c0,1.7-1.7,3.1-3.7,3.1c-2.1,0-3.7-1.4-3.7-3.1v-3.5h-1.6v3.5c0,2.5,2.4,4.5,5.3,4.5
						C269.4,110.4,271.8,108.4,271.8,105.9z"/>
					<path d="M268.6,105.9c0,1-0.9,1.8-2.1,1.8c-1.2,0-2.1-0.8-2.1-1.8v-3.5h-1.6v3.5c0,1.7,1.7,3.1,3.7,3.1c2.1,0,3.7-1.4,3.7-3.1
						v-3.5h-1.6V105.9z"/>
					<path d="M266.5,119.2c-2.1,0-3.7,1.4-3.7,3.1v3.4h1.6v-3.4c0-1,0.9-1.8,2.1-1.8c1.2,0,2.1,0.8,2.1,1.8v3.4h1.6v-3.4
						C270.2,120.6,268.5,119.2,266.5,119.2z"/>
				</g>
				<g>
					<path d="M265.1,144.4v-13.8c0-0.7,0.7-1.2,1.5-1.2h0c0.8,0,1.5,0.5,1.5,1.2v13.8c0,0.7-0.7,1.2-1.5,1.2h0
						C265.7,145.7,265.1,145.1,265.1,144.4z"/>
					<path d="M262.8,145.7c0-1.7,1.7-3.1,3.7-3.1c2.1,0,3.7,1.4,3.7,3.1v3.4h1.6v-3.4c0-2.5-2.4-4.5-5.3-4.5c-2.9,0-5.3,2-5.3,4.5
						v3.4h1.6V145.7z"/>
					<path d="M271.8,129.3v-3.5h-1.6v3.5c0,1.7-1.7,3.1-3.7,3.1c-2.1,0-3.7-1.4-3.7-3.1v-3.5h-1.6v3.5c0,2.5,2.4,4.5,5.3,4.5
						C269.4,133.8,271.8,131.8,271.8,129.3z"/>
					<path d="M268.6,129.3c0,1-0.9,1.8-2.1,1.8c-1.2,0-2.1-0.8-2.1-1.8v-3.5h-1.6v3.5c0,1.7,1.7,3.1,3.7,3.1c2.1,0,3.7-1.4,3.7-3.1
						v-3.5h-1.6V129.3z"/>
					<path d="M266.5,142.6c-2.1,0-3.7,1.4-3.7,3.1v3.4h1.6v-3.4c0-1,0.9-1.8,2.1-1.8c1.2,0,2.1,0.8,2.1,1.8v3.4h1.6v-3.4
						C270.2,144,268.5,142.6,266.5,142.6z"/>
				</g>
				<g>
					<path d="M265.1,167.8V154c0-0.7,0.7-1.2,1.5-1.2h0c0.8,0,1.5,0.5,1.5,1.2v13.8c0,0.7-0.7,1.2-1.5,1.2h0
						C265.7,169,265.1,168.5,265.1,167.8z"/>
					<path d="M262.8,169.1c0-1.7,1.7-3.1,3.7-3.1c2.1,0,3.7,1.4,3.7,3.1v3.4h1.6v-3.4c0-2.5-2.4-4.5-5.3-4.5c-2.9,0-5.3,2-5.3,4.5
						v3.4h1.6V169.1z"/>
					<path d="M271.8,152.7v-3.5h-1.6v3.5c0,1.7-1.7,3.1-3.7,3.1c-2.1,0-3.7-1.4-3.7-3.1v-3.5h-1.6v3.5c0,2.5,2.4,4.5,5.3,4.5
						C269.4,157.1,271.8,155.1,271.8,152.7z"/>
					<path d="M268.6,152.7c0,1-0.9,1.8-2.1,1.8c-1.2,0-2.1-0.8-2.1-1.8v-3.5h-1.6v3.5c0,1.7,1.7,3.1,3.7,3.1c2.1,0,3.7-1.4,3.7-3.1
						v-3.5h-1.6V152.7z"/>
					<path d="M266.5,166c-2.1,0-3.7,1.4-3.7,3.1v3.4h1.6v-3.4c0-1,0.9-1.8,2.1-1.8c1.2,0,2.1,0.8,2.1,1.8v3.4h1.6v-3.4
						C270.2,167.4,268.5,166,266.5,166z"/>
				</g>
			</g>
		</g>
	</g>
	<rect id="topbd" x="20.2" y="26.6" class="st0" width="329.5" height="77"/>
	<polygon id="bar" class="st0" points="349.1,13 349.1,14.5 18.9,14.5 18.9,13 6.3,13 6.3,25.4 18.9,25.4 18.9,23.7 349.1,23.7 
		349.1,25.4 361.6,25.4 361.6,13 	"/>
</g>
<g id="Layer_2">
	<g id="text">
		<path class="st8" d="M49.9,78.1V44.5h22.6c1.2,0,2.3,0.1,3.3,0.3c1,0.2,1.9,0.5,2.6,1c0.7,0.5,1.3,1.1,1.7,2
			c0.4,0.9,0.6,2,0.6,3.3v8.1c0,1-0.2,2-0.5,2.7c-0.3,0.8-0.9,1.4-1.5,2c-0.7,0.5-1.5,0.9-2.6,1.2c-1,0.3-2.2,0.4-3.6,0.4H56.2v12.7
			H49.9z M56.2,59.6h15.6c0.4,0,0.8,0,1.1-0.1c0.3-0.1,0.6-0.2,0.8-0.4c0.2-0.2,0.4-0.4,0.5-0.7c0.1-0.3,0.2-0.7,0.2-1.2v-4.4
			c0-0.4-0.1-0.8-0.2-1.1s-0.3-0.6-0.5-0.7c-0.2-0.2-0.5-0.3-0.8-0.4c-0.3-0.1-0.7-0.1-1.1-0.1H56.2V59.6z"/>
		<path class="st8" d="M86.8,46.6c0-0.5,0-0.9,0-1.2s0.1-0.5,0.3-0.6c0.1-0.1,0.4-0.2,0.6-0.2s0.7,0,1.2,0h2c0.5,0,0.9,0,1.2,0
			c0.3,0,0.5,0.1,0.6,0.2c0.1,0.1,0.2,0.3,0.3,0.6c0,0.3,0,0.7,0,1.2v2c0,0.5,0,0.9,0,1.2c0,0.3-0.1,0.5-0.3,0.6
			c-0.1,0.1-0.4,0.2-0.6,0.3c-0.3,0-0.7,0-1.2,0h-2c-0.5,0-0.9,0-1.2,0s-0.5-0.1-0.6-0.3s-0.2-0.4-0.3-0.6s0-0.7,0-1.2V46.6z
			 M92.9,78.1v-24h-6v24H92.9z"/>
		<path class="st8" d="M97.4,78.1l10.1-11.8l-9.9-12.2h7.8l6.2,8.2l6.7-8.2h6.8L115,66l10.1,12.1h-8l-6.3-7.9l-6.5,7.9H97.4z"/>
		<path class="st8" d="M128.9,59.1c0-0.8,0.1-1.6,0.4-2.3s0.7-1.2,1.2-1.7c0.5-0.4,1.2-0.8,2-1c0.8-0.2,1.8-0.3,2.9-0.3h12.7
			c1.1,0,2,0.1,2.9,0.3c0.8,0.2,1.5,0.6,2,1c0.5,0.5,1,1,1.2,1.7s0.4,1.4,0.4,2.3v9.2h-19.8v5h13.8v-2.6l6,1.1v0.2
			c0,1.1-0.1,2.1-0.4,2.9c-0.3,0.8-0.7,1.4-1.3,1.9s-1.4,0.9-2.4,1.1c-1,0.2-2.1,0.3-3.5,0.3H136c-1.2,0-2.2-0.1-3.1-0.3
			c-0.9-0.2-1.6-0.6-2.2-1.1s-1-1.2-1.3-1.9s-0.4-1.7-0.4-2.9V59.1z M148.7,63.6v-4.8h-13.8v4.8H148.7z"/>
		<path class="st8" d="M162.6,78.1V43.4h6v34.8H162.6z"/>
		<path class="st8" d="M192.5,78.1V44.5h22.6c1.2,0,2.3,0.1,3.3,0.3s1.9,0.5,2.6,1c0.7,0.5,1.3,1.1,1.7,2c0.4,0.9,0.6,2,0.6,3.3v8.1
			c0,1-0.2,2-0.5,2.7c-0.3,0.8-0.9,1.4-1.5,2c-0.7,0.5-1.5,0.9-2.6,1.2c-1,0.3-2.2,0.4-3.6,0.4h-16.3v12.7H192.5z M198.8,59.6h15.6
			c0.4,0,0.8,0,1.1-0.1c0.3-0.1,0.6-0.2,0.8-0.4c0.2-0.2,0.4-0.4,0.5-0.7c0.1-0.3,0.2-0.7,0.2-1.2v-4.4c0-0.4-0.1-0.8-0.2-1.1
			c-0.1-0.3-0.3-0.6-0.5-0.7c-0.2-0.2-0.5-0.3-0.8-0.4c-0.3-0.1-0.7-0.1-1.1-0.1h-15.6V59.6z"/>
		<path class="st8" d="M228.4,59.1c0-0.8,0.1-1.6,0.4-2.3s0.7-1.2,1.2-1.7c0.5-0.4,1.2-0.8,2-1c0.8-0.2,1.8-0.3,2.9-0.3h12.7
			c1.1,0,2,0.1,2.9,0.3c0.8,0.2,1.5,0.6,2,1s1,1,1.2,1.7s0.4,1.4,0.4,2.3v9.2h-19.8v5h13.8v-2.6l6,1.1v0.2c0,1.1-0.1,2.1-0.4,2.9
			c-0.3,0.8-0.7,1.4-1.3,1.9c-0.6,0.5-1.4,0.9-2.4,1.1c-1,0.2-2.1,0.3-3.5,0.3h-10.9c-1.2,0-2.2-0.1-3.1-0.3
			c-0.9-0.2-1.6-0.6-2.2-1.1s-1-1.2-1.3-1.9s-0.4-1.7-0.4-2.9V59.1z M248.2,63.6v-4.8h-13.8v4.8H248.2z"/>
		<path class="st8" d="M261.5,59.1c0-0.8,0.1-1.6,0.4-2.3s0.7-1.2,1.2-1.7c0.5-0.4,1.2-0.8,2-1c0.8-0.2,1.8-0.3,2.9-0.3h12.7
			c1.1,0,2,0.1,2.9,0.3c0.8,0.2,1.5,0.6,2,1s1,1,1.2,1.7s0.4,1.4,0.4,2.3v9.2h-19.8v5h13.8v-2.6l6,1.1v0.2c0,1.1-0.1,2.1-0.4,2.9
			c-0.3,0.8-0.7,1.4-1.3,1.9c-0.6,0.5-1.4,0.9-2.4,1.1c-1,0.2-2.1,0.3-3.5,0.3h-10.9c-1.2,0-2.2-0.1-3.1-0.3
			c-0.9-0.2-1.6-0.6-2.2-1.1s-1-1.2-1.3-1.9s-0.4-1.7-0.4-2.9V59.1z M281.2,63.6v-4.8h-13.8v4.8H281.2z"/>
		<path class="st8" d="M295.1,54.1h6v2.4c0.3-0.9,1-1.6,1.9-2c1-0.4,2.2-0.6,3.8-0.6h8.1c1.1,0,2,0.1,2.8,0.3
			c0.8,0.2,1.4,0.5,1.9,0.9c0.5,0.4,0.9,0.9,1.1,1.6c0.2,0.6,0.3,1.4,0.3,2.4v14.4c0,0.9-0.1,1.6-0.3,2.2c-0.2,0.6-0.6,1.1-1.1,1.5
			c-0.5,0.4-1.1,0.7-1.9,0.9c-0.8,0.2-1.7,0.3-2.8,0.3h-8.1c-1.6,0-2.9-0.2-3.8-0.6c-1-0.4-1.6-1.1-1.9-2v12.7h-6V54.1z M315.2,73
			V59.2h-14.1V73H315.2z"/>
	</g>
</g>
</svg>
