<?xml version="1.0" encoding="utf-8"?>
<!-- Generator: Adobe Illustrator 24.1.0, SVG Export Plug-In . SVG Version: 6.00 Build 0)  -->
<svg version="1.1" xmlns="http://www.w3.org/2000/svg" xmlns:xlink="http://www.w3.org/1999/xlink" x="0px" y="0px"
	 viewBox="0 0 600 400" style="enable-background:new 0 0 600 400;" xml:space="preserve">
<style type="text/css">
	.st0{fill:#444444;}
	.st1{fill:#F2F2F2;}
	.st2{fill:none;stroke:#444444;stroke-width:4;stroke-miterlimit:10;}
</style>
<g>
	<rect id="BG" x="52.6" y="152.4" class="st0" width="494.7" height="95.2"/>
</g>
<g id="ScienceGothic">
	<g>
		<path class="st1" d="M77.8,182c0-1.5,0.2-2.7,0.6-3.8c0.4-1,1-1.9,1.8-2.5c0.8-0.7,1.9-1.1,3.2-1.4c1.3-0.3,2.9-0.4,4.7-0.4h18.5
			c1.8,0,3.4,0.1,4.7,0.4c1.3,0.3,2.4,0.8,3.2,1.4c0.8,0.7,1.4,1.5,1.8,2.5c0.4,1,0.6,2.3,0.6,3.8v5.9l-7.9,1.4v-8.2H85.7v28.2h23.5
			v-9l7.9,1.6v6.2c0,1.5-0.2,2.9-0.6,3.9c-0.4,1.1-1,2-1.8,2.7c-0.8,0.7-1.9,1.2-3.2,1.5c-1.3,0.3-2.9,0.5-4.8,0.5H88
			c-1.9,0-3.4-0.2-4.7-0.5c-1.3-0.3-2.4-0.8-3.2-1.5c-0.8-0.7-1.4-1.6-1.8-2.7s-0.6-2.4-0.6-3.9V182z"/>
		<path class="st1" d="M125.3,182c0-1.7,0.2-3.1,0.8-4.2c0.5-1.1,1.2-1.9,2.1-2.5c0.9-0.6,2-1,3.2-1.2c1.3-0.2,2.6-0.3,4.2-0.3h23
			c1.5,0,2.9,0.1,4.2,0.3c1.3,0.2,2.3,0.6,3.3,1.2c0.9,0.6,1.6,1.4,2.1,2.5c0.5,1.1,0.8,2.5,0.8,4.2v26c0,1.8-0.2,3.2-0.7,4.3
			c-0.5,1.1-1.2,2-2,2.6c-0.9,0.6-2,1.1-3.3,1.3c-1.3,0.2-2.7,0.3-4.3,0.3h-23c-1.6,0-3-0.1-4.3-0.4c-1.3-0.2-2.3-0.7-3.2-1.3
			c-0.9-0.6-1.6-1.5-2-2.6c-0.5-1.1-0.7-2.5-0.7-4.3V182z M133.3,209.3H161v-28.2h-27.7V209.3z"/>
		<path class="st1" d="M179.3,216.2v-42h6.1l29.5,29.5v-29.5h7.3v42h-6.1l-29.5-29.3v29.3H179.3z"/>
		<path class="st1" d="M244.9,216.2v-34.7h-16.7v-7.3h41.3v7.3h-16.7v34.7H244.9z"/>
		<path class="st1" d="M265.8,216.2l21.5-42h6.2l21.8,42h-9.4l-5-9.8h-21.5l-5,9.8H265.8z M283.2,199.2h14.2l-7.1-13.8L283.2,199.2z
			"/>
		<path class="st1" d="M319.9,182c0-1.5,0.2-2.7,0.6-3.8c0.4-1,1-1.9,1.8-2.5c0.8-0.7,1.9-1.1,3.2-1.4c1.3-0.3,2.9-0.4,4.7-0.4h18.5
			c1.8,0,3.4,0.1,4.7,0.4c1.3,0.3,2.4,0.8,3.2,1.4c0.8,0.7,1.4,1.5,1.8,2.5c0.4,1,0.6,2.3,0.6,3.8v5.9l-7.9,1.4v-8.2h-23.3v28.2
			h23.5v-9l7.9,1.6v6.2c0,1.5-0.2,2.9-0.6,3.9s-1,2-1.8,2.7c-0.8,0.7-1.9,1.2-3.2,1.5c-1.3,0.3-2.9,0.5-4.8,0.5h-18.8
			c-1.9,0-3.4-0.2-4.7-0.5c-1.3-0.3-2.4-0.8-3.2-1.5c-0.8-0.7-1.4-1.6-1.8-2.7c-0.4-1.1-0.6-2.4-0.6-3.9V182z"/>
		<path class="st1" d="M379.6,216.2v-34.7h-16.7v-7.3h41.3v7.3h-16.7v34.7H379.6z"/>
		<path class="st1" d="M428,216.2v-42h7.1l16.9,24.5l16.5-24.5h7.1v42h-7.9v-28.7l-16.3,24.2L435.1,188v28.2H428z"/>
		<path class="st1" d="M487,174.2h37.1v7.3h-29.2v9.5h17.6v7.3h-17.6v10.6h29.8v7.3H487V174.2z"/>
	</g>
</g>
<g>
	<g>
		<g>
			<line id="Arrows" class="st2" x1="300" y1="227.6" x2="300" y2="304.7"/>
			<g>
				<polygon id="Arrows" class="st0" points="288.4,296.8 300,340.2 311.6,296.8 				"/>
			</g>
		</g>
	</g>
	<g>
		<g>
			<line id="Arrows" class="st2" x1="440" y1="227.6" x2="440" y2="304.7"/>
			<g>
				<polygon id="Arrows" class="st0" points="428.4,296.8 440,340.2 451.6,296.8 				"/>
			</g>
		</g>
	</g>
	<g>
		<g>
			<line id="Arrows" class="st2" x1="160" y1="227.6" x2="160" y2="304.7"/>
			<g>
				<polygon id="Arrows" class="st0" points="148.4,296.8 160,340.2 171.6,296.8 				"/>
			</g>
		</g>
	</g>
</g>
</svg>
